<svg xmlns="http://www.w3.org/2000/svg" version="1.1" xmlns:xlink="http://www.w3.org/1999/xlink" xmlns:svgjs="http://svgjs.dev/svgjs" viewBox="0 0 10.003040119927064 2.0905231422924175"><g transform="matrix(1,0,0,1,0.3574492485015437,0.3830738937908734)"><rect width="10.003040119927064" height="10.003040119927064" x="-0.3574492485015437" y="-4.339332382608196" fill="#dce2e3"></rect><g><path d=" M 0.546 0 Q 0.624 0 0.69225 0.04499999999999993 Q 0.7605000000000001 0.09000000000000008 0.8025 0.16649999999999998 Q 0.8445 0.243 0.8445 0.3375 Q 0.8445 0.4305 0.8025 0.507 Q 0.7605000000000001 0.5835 0.69225 0.6292500000000001 Q 0.624 0.675 0.546 0.675 L 0.27 0.675 L 0.28500000000000003 0.648 L 0.28500000000000003 0.9585 Q 0.28500000000000003 0.9975 0.261 1.02375 Q 0.23700000000000002 1.05 0.198 1.05 Q 0.1605 1.05 0.1365 1.02375 Q 0.1125 0.9975 0.1125 0.9585 L 0.1125 0.09150000000000003 Q 0.1125 0.05249999999999999 0.13875 0.026250000000000107 Q 0.165 0 0.20400000000000001 0 L 0.546 0 M 0.546 0.504 Q 0.5745 0.504 0.6015 0.48 Q 0.6285000000000001 0.45600000000000007 0.6465 0.41775000000000007 Q 0.6645 0.37950000000000006 0.6645 0.3375 Q 0.6645 0.29400000000000004 0.6465 0.25650000000000006 Q 0.6285000000000001 0.21899999999999997 0.6015 0.19574999999999998 Q 0.5745 0.1725 0.546 0.1725 L 0.267 0.1725 L 0.28500000000000003 0.14550000000000007 L 0.28500000000000003 0.528 L 0.2685 0.504 L 0.546 0.504 M 1.1070410156250001 1.05 Q 1.068041015625 1.05 1.042541015625 1.02375 Q 1.017041015625 0.9975 1.017041015625 0.9585 L 1.017041015625 0.3390000000000001 Q 1.017041015625 0.30000000000000004 1.042541015625 0.27375000000000005 Q 1.068041015625 0.24750000000000005 1.1070410156250001 0.24750000000000005 Q 1.146041015625 0.24750000000000005 1.171541015625 0.27375000000000005 Q 1.197041015625 0.30000000000000004 1.197041015625 0.3390000000000001 L 1.197041015625 0.48 L 1.186541015625 0.37950000000000006 Q 1.203041015625 0.3435 1.229291015625 0.31575 Q 1.255541015625 0.28800000000000003 1.288541015625 0.26925 Q 1.321541015625 0.25050000000000006 1.359041015625 0.24150000000000005 Q 1.396541015625 0.23250000000000004 1.434041015625 0.23250000000000004 Q 1.479041015625 0.23250000000000004 1.509791015625 0.258 Q 1.5405410156250001 0.2835 1.5405410156250001 0.31800000000000006 Q 1.5405410156250001 0.36750000000000005 1.515041015625 0.38925 Q 1.489541015625 0.41100000000000003 1.4595410156250002 0.41100000000000003 Q 1.431041015625 0.41100000000000003 1.407791015625 0.4005000000000001 Q 1.384541015625 0.39 1.354541015625 0.39 Q 1.327541015625 0.39 1.299791015625 0.40275000000000005 Q 1.272041015625 0.4155 1.248791015625 0.4425 Q 1.225541015625 0.46950000000000003 1.211291015625 0.50925 Q 1.197041015625 0.549 1.197041015625 0.603 L 1.197041015625 0.9585 Q 1.197041015625 0.9975 1.171541015625 1.02375 Q 1.146041015625 1.05 1.1070410156250001 1.05 M 2.4211135253906253 0.6495 Q 2.4211135253906253 0.7725 2.366363525390625 0.8662500000000001 Q 2.311613525390625 0.9600000000000001 2.219363525390625 1.0125 Q 2.127113525390625 1.065 2.013113525390625 1.065 Q 1.899113525390625 1.065 1.8068635253906251 1.0125 Q 1.714613525390625 0.9600000000000001 1.659863525390625 0.8662500000000001 Q 1.605113525390625 0.7725 1.605113525390625 0.6495 Q 1.605113525390625 0.5265000000000001 1.659863525390625 0.4327500000000001 Q 1.714613525390625 0.3390000000000001 1.8068635253906251 0.28575000000000006 Q 1.899113525390625 0.23250000000000004 2.013113525390625 0.23250000000000004 Q 2.127113525390625 0.23250000000000004 2.219363525390625 0.28575000000000006 Q 2.311613525390625 0.3390000000000001 2.366363525390625 0.4327500000000001 Q 2.4211135253906253 0.5265000000000001 2.4211135253906253 0.6495 M 2.241113525390625 0.6495 Q 2.241113525390625 0.573 2.2103635253906253 0.51675 Q 2.179613525390625 0.4605 2.127863525390625 0.42900000000000005 Q 2.076113525390625 0.3975000000000001 2.013113525390625 0.3975000000000001 Q 1.950113525390625 0.3975000000000001 1.898363525390625 0.42900000000000005 Q 1.846613525390625 0.4605 1.815863525390625 0.51675 Q 1.785113525390625 0.573 1.785113525390625 0.6495 Q 1.785113525390625 0.7245 1.815863525390625 0.78075 Q 1.846613525390625 0.8370000000000001 1.898363525390625 0.8685 Q 1.950113525390625 0.9 2.013113525390625 0.9 Q 2.076113525390625 0.9 2.127863525390625 0.8685 Q 2.179613525390625 0.8370000000000001 2.2103635253906253 0.78075 Q 2.241113525390625 0.7245 2.241113525390625 0.6495 M 2.539634033203125 0.9255 Q 2.524634033203125 0.9045000000000001 2.526134033203125 0.8715 Q 2.527634033203125 0.8385 2.5651340332031247 0.8145 Q 2.5891340332031247 0.7995000000000001 2.616134033203125 0.8017500000000001 Q 2.643134033203125 0.804 2.668634033203125 0.8295 Q 2.712134033203125 0.873 2.760134033203125 0.897 Q 2.808134033203125 0.921 2.880134033203125 0.921 Q 2.902634033203125 0.9195 2.9296340332031248 0.91425 Q 2.956634033203125 0.909 2.976884033203125 0.89025 Q 2.997134033203125 0.8715 2.997134033203125 0.8325 Q 2.997134033203125 0.7995000000000001 2.9746340332031247 0.78 Q 2.9521340332031247 0.7605000000000001 2.915384033203125 0.7470000000000001 Q 2.878634033203125 0.7335 2.833634033203125 0.7215 Q 2.7871340332031247 0.708 2.738384033203125 0.6915 Q 2.689634033203125 0.675 2.649134033203125 0.64875 Q 2.608634033203125 0.6225 2.583134033203125 0.579 Q 2.557634033203125 0.5355000000000001 2.557634033203125 0.46950000000000003 Q 2.557634033203125 0.3945000000000001 2.599634033203125 0.3420000000000001 Q 2.641634033203125 0.2895 2.708384033203125 0.261 Q 2.775134033203125 0.23250000000000004 2.848634033203125 0.23250000000000004 Q 2.895134033203125 0.23250000000000004 2.946134033203125 0.24375000000000002 Q 2.997134033203125 0.255 3.043634033203125 0.27975000000000005 Q 3.090134033203125 0.3045 3.121634033203125 0.3450000000000001 Q 3.1381340332031247 0.36750000000000005 3.141134033203125 0.399 Q 3.144134033203125 0.4305 3.112634033203125 0.45600000000000007 Q 3.090134033203125 0.474 3.060134033203125 0.47175 Q 3.030134033203125 0.46950000000000003 3.010634033203125 0.4515 Q 2.985134033203125 0.4185 2.942384033203125 0.399 Q 2.899634033203125 0.37950000000000006 2.844134033203125 0.37950000000000006 Q 2.821634033203125 0.37950000000000006 2.795384033203125 0.38475000000000004 Q 2.769134033203125 0.39 2.749634033203125 0.40725 Q 2.7301340332031248 0.4245 2.7301340332031248 0.4620000000000001 Q 2.7301340332031248 0.49650000000000005 2.752634033203125 0.51675 Q 2.775134033203125 0.537 2.813384033203125 0.5497500000000001 Q 2.851634033203125 0.5625 2.895134033203125 0.5745 Q 2.940134033203125 0.5865 2.986634033203125 0.603 Q 3.033134033203125 0.6195 3.072134033203125 0.6465000000000001 Q 3.111134033203125 0.6735 3.135134033203125 0.71625 Q 3.159134033203125 0.7590000000000001 3.159134033203125 0.8250000000000001 Q 3.159134033203125 0.9015000000000001 3.114134033203125 0.9555 Q 3.0691340332031247 1.0095 3.001634033203125 1.03725 Q 2.934134033203125 1.065 2.863634033203125 1.065 Q 2.775134033203125 1.065 2.686634033203125 1.0342500000000001 Q 2.598134033203125 1.0035 2.539634033203125 0.9255 M 3.7396259765625 0.23250000000000004 Q 3.8446259765625 0.23250000000000004 3.9278759765625 0.28575000000000006 Q 4.0111259765625 0.3390000000000001 4.0598759765625 0.43200000000000005 Q 4.1086259765625 0.525 4.1086259765625 0.648 Q 4.1086259765625 0.771 4.0598759765625 0.86475 Q 4.0111259765625 0.9585 3.9293759765625 1.0117500000000001 Q 3.8476259765625 1.065 3.7456259765625 1.065 Q 3.6856259765625 1.065 3.6331259765625 1.0455 Q 3.5806259765625 1.026 3.5408759765625 0.996 Q 3.5011259765625002 0.9660000000000001 3.4793759765625003 0.93525 Q 3.4576259765625 0.9045000000000001 3.4576259765625 0.8835000000000001 L 3.5041259765625 0.8640000000000001 L 3.5041259765625 1.2585 Q 3.5041259765625 1.2975 3.4786259765625003 1.32375 Q 3.4531259765625 1.35 3.4141259765625 1.35 Q 3.3751259765625 1.35 3.3496259765625 1.3245 Q 3.3241259765625 1.299 3.3241259765625 1.2585 L 3.3241259765625 0.3390000000000001 Q 3.3241259765625 0.30000000000000004 3.3496259765625 0.27375000000000005 Q 3.3751259765625 0.24750000000000005 3.4141259765625 0.24750000000000005 Q 3.4531259765625 0.24750000000000005 3.4786259765625003 0.27375000000000005 Q 3.5041259765625 0.30000000000000004 3.5041259765625 0.3390000000000001 L 3.5041259765625 0.4125 L 3.4786259765625003 0.399 Q 3.4786259765625003 0.37950000000000006 3.4996259765625 0.35175 Q 3.5206259765625 0.32400000000000007 3.5566259765625 0.29625 Q 3.5926259765625 0.26850000000000007 3.6398759765625 0.25050000000000006 Q 3.6871259765625 0.23250000000000004 3.7396259765625 0.23250000000000004 M 3.7171259765625 0.3975000000000001 Q 3.6511259765625 0.3975000000000001 3.6016259765625 0.4305 Q 3.5521259765625 0.4635 3.5243759765625002 0.51975 Q 3.4966259765625 0.5760000000000001 3.4966259765625 0.648 Q 3.4966259765625 0.7185 3.5243759765625002 0.7762500000000001 Q 3.5521259765625 0.8340000000000001 3.6016259765625 0.867 Q 3.6511259765625 0.9 3.7171259765625 0.9 Q 3.7831259765625003 0.9 3.8318759765625003 0.867 Q 3.8806259765625 0.8340000000000001 3.9083759765625 0.7762500000000001 Q 3.9361259765625 0.7185 3.9361259765625 0.648 Q 3.9361259765625 0.5760000000000001 3.9083759765625 0.51975 Q 3.8806259765625 0.4635 3.8318759765625003 0.4305 Q 3.7831259765625003 0.3975000000000001 3.7171259765625 0.3975000000000001 M 4.644104736328125 1.065 Q 4.516604736328125 1.065 4.422854736328125 1.0117500000000001 Q 4.329104736328125 0.9585 4.2788547363281255 0.867 Q 4.228604736328125 0.7755000000000001 4.228604736328125 0.66 Q 4.228604736328125 0.525 4.283354736328125 0.4297500000000001 Q 4.338104736328125 0.3345 4.426604736328125 0.2835 Q 4.515104736328126 0.23250000000000004 4.614104736328125 0.23250000000000004 Q 4.690604736328125 0.23250000000000004 4.758854736328125 0.264 Q 4.827104736328125 0.2955 4.879604736328125 0.35025000000000006 Q 4.932104736328125 0.405 4.962854736328126 0.477 Q 4.993604736328125 0.549 4.993604736328125 0.6300000000000001 Q 4.992104736328125 0.666 4.965104736328125 0.6885000000000001 Q 4.938104736328125 0.7110000000000001 4.902104736328125 0.7110000000000001 L 4.329104736328125 0.7110000000000001 L 4.284104736328125 0.561 L 4.834604736328125 0.561 L 4.801604736328125 0.591 L 4.801604736328125 0.5505 Q 4.798604736328125 0.507 4.7708547363281255 0.47250000000000003 Q 4.743104736328125 0.43800000000000006 4.701854736328126 0.41775000000000007 Q 4.660604736328125 0.3975000000000001 4.614104736328125 0.3975000000000001 Q 4.569104736328125 0.3975000000000001 4.530104736328125 0.4095000000000001 Q 4.491104736328126 0.4215 4.462604736328125 0.45000000000000007 Q 4.434104736328125 0.47850000000000004 4.4176047363281254 0.5265000000000001 Q 4.401104736328125 0.5745 4.401104736328125 0.648 Q 4.401104736328125 0.7290000000000001 4.434854736328125 0.78525 Q 4.468604736328125 0.8415 4.521854736328125 0.87075 Q 4.575104736328125 0.9 4.635104736328125 0.9 Q 4.690604736328125 0.9 4.7236047363281255 0.891 Q 4.756604736328125 0.882 4.776854736328125 0.8692500000000001 Q 4.797104736328125 0.8565 4.813604736328125 0.8475 Q 4.8406047363281255 0.8340000000000001 4.8646047363281255 0.8340000000000001 Q 4.897604736328125 0.8340000000000001 4.919354736328125 0.8565 Q 4.941104736328125 0.879 4.941104736328125 0.909 Q 4.941104736328125 0.9495 4.899104736328125 0.9825 Q 4.860104736328125 1.0155 4.789604736328125 1.0402500000000001 Q 4.719104736328125 1.065 4.644104736328125 1.065 M 5.24863037109375 1.05 Q 5.20963037109375 1.05 5.18413037109375 1.02375 Q 5.15863037109375 0.9975 5.15863037109375 0.9585 L 5.15863037109375 0.3390000000000001 Q 5.15863037109375 0.30000000000000004 5.18413037109375 0.27375000000000005 Q 5.20963037109375 0.24750000000000005 5.24863037109375 0.24750000000000005 Q 5.28763037109375 0.24750000000000005 5.31313037109375 0.27375000000000005 Q 5.33863037109375 0.30000000000000004 5.33863037109375 0.3390000000000001 L 5.33863037109375 0.48 L 5.32813037109375 0.37950000000000006 Q 5.34463037109375 0.3435 5.37088037109375 0.31575 Q 5.39713037109375 0.28800000000000003 5.43013037109375 0.26925 Q 5.46313037109375 0.25050000000000006 5.50063037109375 0.24150000000000005 Q 5.53813037109375 0.23250000000000004 5.57563037109375 0.23250000000000004 Q 5.62063037109375 0.23250000000000004 5.65138037109375 0.258 Q 5.68213037109375 0.2835 5.68213037109375 0.31800000000000006 Q 5.68213037109375 0.36750000000000005 5.65663037109375 0.38925 Q 5.63113037109375 0.41100000000000003 5.60113037109375 0.41100000000000003 Q 5.57263037109375 0.41100000000000003 5.54938037109375 0.4005000000000001 Q 5.52613037109375 0.39 5.4961303710937495 0.39 Q 5.46913037109375 0.39 5.44138037109375 0.40275000000000005 Q 5.41363037109375 0.4155 5.39038037109375 0.4425 Q 5.36713037109375 0.46950000000000003 5.35288037109375 0.50925 Q 5.33863037109375 0.549 5.33863037109375 0.603 L 5.33863037109375 0.9585 Q 5.33863037109375 0.9975 5.31313037109375 1.02375 Q 5.28763037109375 1.05 5.24863037109375 1.05 M 6.456125976562499 0.23250000000000004 Q 6.4951259765625 0.23250000000000004 6.520625976562499 0.258 Q 6.546125976562499 0.2835 6.546125976562499 0.32400000000000007 L 6.546125976562499 0.9585 Q 6.546125976562499 0.9975 6.520625976562499 1.02375 Q 6.4951259765625 1.05 6.456125976562499 1.05 Q 6.4171259765625 1.05 6.3916259765625 1.02375 Q 6.3661259765625 0.9975 6.3661259765625 0.9585 L 6.3661259765625 0.885 L 6.3991259765625 0.8985000000000001 Q 6.3991259765625 0.918 6.378125976562499 0.9457500000000001 Q 6.357125976562499 0.9735 6.3211259765625 1.0005 Q 6.285125976562499 1.0275 6.236375976562499 1.0462500000000001 Q 6.1876259765625 1.065 6.1306259765624995 1.065 Q 6.027125976562499 1.065 5.9431259765624995 1.0117500000000001 Q 5.8591259765625 0.9585 5.8103759765625 0.86475 Q 5.7616259765625 0.771 5.7616259765625 0.6495 Q 5.7616259765625 0.5265000000000001 5.8103759765625 0.4327500000000001 Q 5.8591259765625 0.3390000000000001 5.9416259765624995 0.28575000000000006 Q 6.0241259765625 0.23250000000000004 6.124625976562499 0.23250000000000004 Q 6.189125976562499 0.23250000000000004 6.243125976562499 0.252 Q 6.2971259765625 0.2715000000000001 6.336875976562499 0.3015 Q 6.376625976562499 0.3315 6.3983759765625 0.36225000000000007 Q 6.4201259765625 0.393 6.4201259765625 0.41400000000000003 L 6.3661259765625 0.4335 L 6.3661259765625 0.32400000000000007 Q 6.3661259765625 0.28500000000000003 6.3916259765625 0.25875000000000004 Q 6.4171259765625 0.23250000000000004 6.456125976562499 0.23250000000000004 M 6.1531259765624995 0.9 Q 6.219125976562499 0.9 6.268625976562499 0.867 Q 6.3181259765624995 0.8340000000000001 6.3458759765625 0.777 Q 6.3736259765625 0.72 6.3736259765625 0.6495 Q 6.3736259765625 0.5775 6.3458759765625 0.5205000000000001 Q 6.3181259765624995 0.4635 6.268625976562499 0.4305 Q 6.219125976562499 0.3975000000000001 6.1531259765624995 0.3975000000000001 Q 6.0886259765625 0.3975000000000001 6.0391259765625 0.4305 Q 5.9896259765624995 0.4635 5.961875976562499 0.5205000000000001 Q 5.934125976562499 0.5775 5.934125976562499 0.6495 Q 5.934125976562499 0.72 5.961875976562499 0.777 Q 5.9896259765624995 0.8340000000000001 6.0391259765625 0.867 Q 6.0886259765625 0.9 6.1531259765624995 0.9" fill="#404040" fill-rule="nonzero"></path></g><g></g><g clip-path="url(#SvgjsClipPath1002)"><g clip-path="url(#SvgjsClipPath10006a8403b5-ab41-4b2d-98ea-5d4fdf3229b9)"><path d=" M 8.89675634847197 -0.025624645289329506 C 8.723967890860637 -0.02562910346891549 8.560120732784783 0.05118415767137674 8.449602515595451 0.1840057476816964 L 8.166592132847539 0.5241407632230997 C 8.321798351466757 0.5168693989342337 8.429121116505264 0.5781148611679588 8.447235230597867 0.6890207020176216 C 8.378083499594599 0.689019880289251 8.312489915192675 0.7196770299325368 8.26813404637343 0.7727290685617325 L 8.136682509804018 0.9299635535862862 L 7.980523532037628 0.7477819762909242 L 7.97489465437671 0.7545448126914225 C 7.868740918966639 0.8821268611907126 7.959463463281365 1.075642180733757 8.125436444778472 1.075642180733757 L 8.3718620453045 1.075642180733757 L 9.28817084866469 -0.025583729252333907 Z" fill="#bab9b4" transform="matrix(1,0,0,1,0,0)" fill-rule="nonzero"></path></g><g clip-path="url(#SvgjsClipPath10006a8403b5-ab41-4b2d-98ea-5d4fdf3229b9)"><path d=" M 8.312937106883217 0.5942182442996565 C 8.312937106883217 0.6081252716239294 8.301663236010992 0.6193991424961538 8.28775620868672 0.6193991424961538 C 8.273849181362447 0.6193991424961538 8.262575310490222 0.6081252716239294 8.262575310490222 0.5942182442996565 C 8.262575310490222 0.5803112169753837 8.273849181362447 0.5690373461031593 8.28775620868672 0.5690373461031593 C 8.301663236010992 0.5690373461031593 8.312937106883217 0.5803112169753837 8.312937106883217 0.5942182442996565 Z" fill="#404040" transform="matrix(1,0,0,1,0,0)" fill-rule="nonzero"></path></g><g clip-path="url(#SvgjsClipPath10006a8403b5-ab41-4b2d-98ea-5d4fdf3229b9)"><path d=" M 8.36342749653534 1.0756246452893294 L 7.934060449455466 1.0756246452893294 C 7.785344582339964 1.0756272474449524 7.644350351043578 1.0094095984059055 7.5493854050706775 0.8949628065109321 L 7.04359304603184 0.28541322280031983 L 7.461088597234952 0.28541322280031983 C 7.6173135522213276 0.28541271107234645 7.765426388006553 0.35497436908592167 7.865187068896197 0.475199337828656 Z" fill="#404040" transform="matrix(1,0,0,1,0,0)" fill-rule="nonzero"></path></g></g></g><defs><clipPath id="SvgjsClipPath1002"><path d=" M 7.043604736328124 -0.025624645289329506 h 2.2445368865958533 v 1.101249290578659 h -2.2445368865958533 Z"></path></clipPath><clipPath id="SvgjsClipPath10006a8403b5-ab41-4b2d-98ea-5d4fdf3229b9"><path d=" M 7.043604736328124 -0.025624645289329506 L 9.288141622923977 -0.025624645289329506 L 9.288141622923977 1.0756246452893294 L 7.043604736328124 1.0756246452893294 Z"></path></clipPath></defs></svg>